<?xml version="1.0" encoding="UTF-8"?>
<svg xmlns="http://www.w3.org/2000/svg" xmlns:xlink="http://www.w3.org/1999/xlink" width="70px" height="70px" viewBox="0 0 70 70" version="1.1">
<g id="surface1">
<path style=" stroke:none;fill-rule:nonzero;fill:rgb(96.470588%,74.117647%,22.745098%);fill-opacity:1;" d="M 30.332031 37.683594 L 39.78125 32.199219 L 49.117188 37.683594 L 39.78125 43.050781 L 30.332031 37.800781 Z M 1.984375 21.46875 L 39.78125 0 L 67.898438 15.984375 L 58.566406 32.199219 L 39.785156 21.46875 L 11.433594 37.566406 Z M 1.984375 21.46875 "/>
<path style=" stroke:none;fill-rule:nonzero;fill:rgb(92.156863%,54.901961%,13.72549%);fill-opacity:1;" d="M 30.332031 59.148438 L 30.332031 48.417969 L 39.664062 43.050781 L 49.117188 37.683594 L 49.117188 48.414062 L 39.78125 53.78125 L 39.78125 64.515625 L 30.332031 70 Z M 30.332031 37.683594 L 20.882812 32.316406 L 11.433594 37.566406 L 11.433594 26.832031 L 39.78125 10.734375 L 39.78125 32.199219 Z M 58.449219 26.832031 L 58.449219 21.464844 L 67.898438 15.984375 L 68.015625 26.714844 L 58.566406 32.199219 Z M 58.449219 26.832031 "/>
<path style=" stroke:none;fill-rule:nonzero;fill:rgb(89.019608%,35.294118%,16.862745%);fill-opacity:1;" d="M 20.882812 64.28125 L 20.882812 32.316406 L 30.214844 27.066406 L 30.332031 37.683594 L 39.78125 42.933594 L 39.78125 53.785156 L 30.332031 48.765625 L 30.332031 70 Z M 6.648438 34.765625 L 1.984375 31.96875 L 1.984375 21.46875 L 11.433594 26.835938 L 11.433594 37.566406 Z M 39.78125 21.46875 L 39.78125 10.734375 L 58.449219 21.464844 L 58.566406 32.199219 L 39.785156 21.464844 Z M 39.78125 21.46875 "/>
</g>
</svg>
