<?xml version="1.0" encoding="UTF-8"?>
<svg xmlns="http://www.w3.org/2000/svg" xmlns:xlink="http://www.w3.org/1999/xlink" width="70px" height="70px" viewBox="0 0 70 70" version="1.1">
<g id="surface1">
<path style=" stroke:none;fill-rule:nonzero;fill:rgb(0%,0%,0%);fill-opacity:1;" d="M 69.335938 23.160156 L 59.542969 23.160156 L 59.554688 35.476562 L 46.441406 35.476562 L 46.441406 49.808594 L 52.960938 49.808594 L 52.960938 69.488281 L 17.039062 69.488281 L 17.039062 49.789062 L 23.574219 49.789062 L 23.585938 35.476562 L 10.363281 35.476562 L 10.363281 23.160156 L 0.445312 23.160156 L 0.445312 0.636719 L 69.335938 0.636719 Z M 69.335938 23.160156 "/>
<path style=" stroke:none;fill-rule:nonzero;fill:rgb(80%,80%,80%);fill-opacity:1;" d="M 56.269531 32.613281 L 49.636719 32.613281 L 48.074219 33.972656 L 57.785156 33.972656 L 57.785156 23.132812 L 56.269531 24.4375 Z M 38.375 29.839844 L 38.375 56.652344 L 38.402344 56.652344 L 40.011719 55.339844 L 40.003906 55.339844 L 40.003906 31.09375 L 43.246094 31.09375 L 43.246094 52.558594 L 49.808594 52.558594 L 49.808594 66.710938 L 20.34375 66.710938 L 18.804688 68.007812 L 51.386719 68.007812 L 51.386719 51.289062 L 44.839844 51.289062 L 44.839844 31.09375 L 48.074219 31.09375 L 49.636719 29.839844 Z M 43.238281 62.3125 L 27.101562 62.3125 L 25.511719 63.695312 L 44.90625 63.695312 L 44.90625 55.339844 L 44.898438 55.339844 L 43.246094 56.65625 L 43.238281 56.65625 Z M 43.246094 15.046875 L 43.246094 23.132812 L 44.84375 23.132812 L 44.84375 16.441406 L 51.375 16.441406 L 52.855469 15.046875 Z M 66.1875 20.183594 L 52.855469 20.183594 L 51.375 21.660156 L 67.761719 21.660156 L 67.761719 2.113281 L 66.1875 3.589844 Z M 17.195312 15.074219 L 17.195312 20.183594 L 4.171875 20.183594 L 2.308594 21.660156 L 18.769531 21.660156 L 18.769531 16.441406 L 25.492188 16.441406 L 27.0625 15.078125 Z M 27.0625 31.089844 L 22.246094 31.089844 L 22.246094 33.972656 L 12.464844 33.972656 L 13.957031 32.613281 L 20.625 32.613281 L 20.625 29.835938 L 31.851562 29.835938 L 30.300781 31.089844 Z M 27.0625 31.089844 "/>
<path style=" stroke:none;fill-rule:nonzero;fill:rgb(80%,0%,0%);fill-opacity:1;" d="M 25.511719 55.339844 L 30.304688 55.339844 L 30.304688 31.09375 L 27.066406 31.09375 L 27.066406 52.535156 L 20.34375 52.535156 L 20.34375 66.710938 L 25.511719 62.144531 Z M 27.101562 56.671875 L 27.101562 62.3125 L 30.242188 59.4375 L 35.074219 59.4375 L 35.074219 27.167969 L 31.851562 29.835938 L 31.851562 56.671875 Z M 40.023438 55.335938 L 44.90625 55.335938 L 44.90625 56.511719 L 49.8125 52.589844 L 49.8125 52.554688 L 43.246094 52.554688 L 40 55.339844 L 40.011719 55.339844 Z M 27.066406 15.078125 L 27.066406 23.132812 L 35.238281 23.132812 L 35.238281 9.058594 Z M 59.554688 9.058594 L 52.851562 15.046875 L 52.851562 20.183594 L 59.554688 14.757812 Z M 10.425781 9.058594 L 59.554688 9.058594 L 66.183594 3.59375 L 4.171875 3.59375 L 4.171875 20.183594 L 10.425781 14.859375 Z M 53.097656 27.167969 L 49.636719 29.835938 L 49.636719 32.613281 L 53.097656 29.835938 Z M 43.242188 56.660156 L 43.242188 56.652344 L 38.398438 56.652344 L 35.074219 59.4375 L 40.113281 59.4375 Z M 17.375 29.835938 L 13.960938 32.613281 L 13.960938 24.433594 L 56.269531 24.433594 L 53.097656 27.167969 L 17.375 27.167969 Z M 17.375 29.835938 "/>
<path style=" stroke:none;fill-rule:nonzero;fill:rgb(100%,100%,100%);fill-opacity:1;" d="M 25.511719 55.339844 L 25.511719 63.695312 L 27.101562 62.308594 L 27.101562 56.671875 L 31.851562 56.671875 L 31.851562 29.835938 L 30.304688 31.09375 L 30.304688 55.339844 Z M 43.238281 56.652344 L 43.246094 56.652344 L 44.898438 55.339844 L 44.902344 55.335938 L 40.023438 55.335938 L 40.011719 55.339844 L 38.402344 56.652344 L 38.398438 56.652344 Z M 49.636719 29.835938 L 48.074219 31.09375 L 48.074219 33.972656 L 49.636719 32.613281 Z M 20.34375 52.535156 L 27.066406 52.535156 L 27.066406 31.09375 L 25.449219 31.09375 L 25.449219 51.269531 L 18.804688 51.269531 L 18.804688 68.011719 L 20.34375 66.710938 Z M 35.238281 23.132812 L 27.066406 23.132812 L 27.066406 15.078125 L 25.492188 16.441406 L 25.492188 23.132812 L 12.464844 23.132812 L 12.464844 33.972656 L 13.957031 32.613281 L 13.957031 24.433594 L 56.269531 24.433594 L 57.785156 23.132812 Z M 2.308594 21.660156 L 4.171875 20.183594 L 4.171875 3.59375 L 66.183594 3.59375 L 67.761719 2.117188 L 2.308594 2.117188 Z M 52.851562 20.183594 L 51.371094 21.660156 L 51.371094 16.441406 L 52.851562 15.046875 Z M 52.851562 20.183594 "/>
<path style=" stroke:none;fill-rule:nonzero;fill:rgb(100%,100%,100%);fill-opacity:1;" d="M 55.328125 68.269531 L 55.328125 67.832031 L 55.667969 67.832031 C 55.84375 67.832031 56.03125 67.863281 56.03125 68.039062 C 56.03125 68.253906 55.84375 68.269531 55.628906 68.269531 Z M 55.328125 68.449219 L 55.617188 68.449219 L 56.050781 69.0625 L 56.332031 69.0625 L 55.859375 68.4375 C 56.109375 68.417969 56.292969 68.304688 56.292969 68.054688 C 56.292969 67.773438 56.097656 67.648438 55.707031 67.648438 L 55.078125 67.648438 L 55.078125 69.0625 L 55.328125 69.0625 Z M 55.632812 69.582031 C 56.417969 69.582031 57.082031 69.0625 57.082031 68.351562 C 57.082031 67.648438 56.417969 67.128906 55.632812 67.128906 C 54.84375 67.128906 54.175781 67.648438 54.175781 68.351562 C 54.175781 69.0625 54.84375 69.582031 55.632812 69.582031 M 54.460938 68.351562 C 54.460938 67.773438 54.972656 67.332031 55.632812 67.332031 C 56.28125 67.332031 56.792969 67.773438 56.792969 68.351562 C 56.792969 68.941406 56.28125 69.378906 55.632812 69.378906 C 54.972656 69.378906 54.460938 68.941406 54.460938 68.351562 "/>
</g>
</svg>
