<?xml version="1.0" encoding="UTF-8"?>
<svg xmlns="http://www.w3.org/2000/svg" xmlns:xlink="http://www.w3.org/1999/xlink" width="5px" height="5px" viewBox="0 0 5 5" version="1.1">
<g id="surface1">
<path style=" stroke:none;fill-rule:nonzero;fill:rgb(0%,0%,0%);fill-opacity:1;" d="M 0 1.25 C 0 0.90625 0.28125 0.625 0.625 0.625 L 4.375 0.625 C 4.71875 0.625 5 0.90625 5 1.25 L 5 3.75 C 5 4.09375 4.71875 4.375 4.375 4.375 L 0.625 4.375 C 0.28125 4.375 0 4.09375 0 3.75 Z M 0.625 0.9375 C 0.453125 0.9375 0.3125 1.078125 0.3125 1.25 L 0.3125 1.320312 L 2.5 2.628906 L 4.6875 1.320312 L 4.6875 1.25 C 4.6875 1.078125 4.546875 0.9375 4.375 0.9375 Z M 4.6875 1.683594 L 3.214844 2.566406 L 4.6875 3.46875 Z M 4.675781 3.832031 L 2.914062 2.746094 L 2.5 2.996094 L 2.085938 2.746094 L 0.324219 3.832031 C 0.359375 3.96875 0.484375 4.0625 0.625 4.0625 L 4.375 4.0625 C 4.515625 4.0625 4.640625 3.96875 4.675781 3.832031 M 0.3125 3.46875 L 1.785156 2.566406 L 0.3125 1.683594 Z M 0.3125 3.46875 "/>
</g>
</svg>
