<?xml version="1.0" encoding="UTF-8"?>
<svg xmlns="http://www.w3.org/2000/svg" xmlns:xlink="http://www.w3.org/1999/xlink" width="70px" height="70px" viewBox="0 0 70 70" version="1.1">
<g id="surface1">
<path style="fill-rule:nonzero;fill:rgb(0%,0%,0%);fill-opacity:1;stroke-width:2.149;stroke-linecap:butt;stroke-linejoin:miter;stroke:rgb(0%,0%,0%);stroke-opacity:1;stroke-miterlimit:4;" d="M 18.982857 18.635714 C 19.145714 17.278571 19.097143 17.081429 20.107143 17.3 L 20.364286 17.322857 C 21.141429 17.358571 22.157143 17.198571 22.764286 16.921429 C 24.048571 16.325714 24.811429 15.328571 23.544286 15.591429 C 20.654286 16.187143 20.444286 15.208571 20.444286 15.208571 C 23.497143 10.678571 24.774286 4.928571 23.671429 3.521429 C 20.667143 -0.318571 15.465714 1.497143 15.378571 1.545714 L 15.351429 1.55 C 14.781429 1.43 14.151429 1.36 13.421429 1.35 C 12.112857 1.33 11.121429 1.692857 10.367143 2.264286 C 10.367143 2.264286 1.09 -1.558571 1.521429 7.071429 C 1.612857 8.907143 4.151429 20.971429 7.181429 17.321429 C 8.29 15.987143 9.36 14.86 9.36 14.86 C 9.89 15.212857 10.527143 15.392857 11.194286 15.328571 L 11.245714 15.284286 C 11.23 15.457143 11.237143 15.631429 11.267143 15.801429 C 10.487143 16.674286 10.717143 16.827143 9.157143 17.148571 C 7.578571 17.472857 8.507143 18.051429 9.111429 18.204286 C 9.845714 18.388571 11.542857 18.648571 12.691429 17.041429 L 12.645714 17.225714 C 12.951429 17.47 12.93 18.985714 12.975714 20.067143 C 13.02 21.148571 13.091429 22.16 13.311429 22.755714 C 13.532857 23.35 13.791429 24.885714 15.841429 24.454286 C 17.555714 24.088571 18.865714 23.558571 18.985714 18.645714 " transform="matrix(2.734375,0,0,2.734375,0,0)"/>
<path style=" stroke:none;fill-rule:nonzero;fill:rgb(20%,40.392157%,56.862745%);fill-opacity:1;" d="M 64.351562 42.65625 C 56.453125 44.285156 55.875 41.609375 55.875 41.609375 C 64.226562 29.222656 67.71875 13.5 64.703125 9.652344 C 56.488281 -0.847656 42.269531 4.121094 42.03125 4.25 L 41.953125 4.261719 C 40.214844 3.914062 38.449219 3.730469 36.679688 3.714844 C 33.101562 3.660156 30.390625 4.652344 28.328125 6.210938 C 28.328125 6.210938 2.957031 -4.238281 4.140625 19.355469 C 4.390625 24.375 11.332031 57.363281 19.617188 47.382812 C 22.667969 43.714844 25.59375 40.632812 25.59375 40.632812 C 27.042969 41.597656 28.785156 42.089844 30.609375 41.914062 L 30.75 41.792969 C 30.710938 42.265625 30.726562 42.742188 30.808594 43.207031 C 28.675781 45.59375 29.304688 46.011719 25.039062 46.890625 C 20.722656 47.777344 23.261719 49.359375 24.914062 49.777344 C 26.921875 50.28125 31.5625 50.992188 34.703125 46.597656 L 34.578125 47.101562 C 35.414062 47.769531 36 51.457031 35.898438 54.796875 C 35.800781 58.136719 35.734375 60.429688 36.390625 62.222656 C 37.046875 64.015625 37.703125 68.046875 43.308594 66.871094 C 47.992188 65.867188 50.417969 63.261719 50.761719 58.925781 C 51 55.839844 51.542969 56.296875 51.582031 53.539062 L 52.019531 52.230469 C 52.519531 48.046875 52.101562 46.699219 54.984375 47.328125 L 55.6875 47.390625 C 57.8125 47.488281 60.59375 47.050781 62.222656 46.292969 C 65.738281 44.664062 67.820312 41.941406 64.355469 42.65625 Z M 64.351562 42.65625 "/>
<path style="fill:none;stroke-width:0.716;stroke-linecap:round;stroke-linejoin:round;stroke:rgb(100%,100%,100%);stroke-opacity:1;stroke-miterlimit:4;" d="M 12.814286 16.467143 C 12.734286 19.312857 12.834286 22.178571 13.111429 22.867143 C 13.39 23.554286 13.987143 24.917143 16.038571 24.478571 C 17.751429 24.111429 18.374286 23.401429 18.645714 21.831429 L 19.278571 16.814286 M 10.355714 2.2 C 10.355714 2.2 1.071429 -1.595714 1.504286 7.032857 C 1.595714 8.868571 4.134286 20.932857 7.164286 17.282857 C 8.27 15.95 9.27 14.907143 9.27 14.907143 M 15.37 1.507143 C 15.05 1.607143 20.534286 -0.498571 23.651429 3.484286 C 24.751429 4.891429 23.477143 10.641429 20.424286 15.171429 " transform="matrix(2.734375,0,0,2.734375,0,0)"/>
<path style="fill:none;stroke-width:0.716;stroke-linecap:round;stroke-linejoin:bevel;stroke:rgb(100%,100%,100%);stroke-opacity:1;stroke-miterlimit:4;" d="M 20.424286 15.17 C 20.424286 15.17 20.624286 16.15 23.525714 15.551429 C 24.791429 15.29 24.028571 16.285714 22.744286 16.881429 C 21.691429 17.371429 19.327143 17.497143 19.288571 16.821429 C 19.188571 15.077143 20.531429 15.607143 20.434286 15.17 C 20.347143 14.775714 19.744286 14.39 19.348571 13.425714 C 19.001429 12.585714 14.588571 6.135714 20.572857 7.092857 C 20.792857 7.048571 19.012857 1.392857 13.412857 1.311429 C 7.812857 1.228571 7.99 8.195714 7.99 8.195714 " transform="matrix(2.734375,0,0,2.734375,0,0)"/>
<path style="fill:none;stroke-width:0.716;stroke-linecap:butt;stroke-linejoin:round;stroke:rgb(100%,100%,100%);stroke-opacity:1;stroke-miterlimit:4;" d="M 11.247143 15.768571 C 10.467143 16.64 10.697143 16.792857 9.137143 17.114286 C 7.558571 17.438571 8.487143 18.018571 9.091429 18.17 C 9.824286 18.354286 11.522857 18.614286 12.671429 17.007143 C 13.021429 16.517143 12.668571 15.737143 12.188571 15.538571 C 11.957143 15.442857 11.647143 15.322857 11.248571 15.768571 Z M 11.247143 15.768571 " transform="matrix(2.734375,0,0,2.734375,0,0)"/>
<path style="fill:none;stroke-width:0.716;stroke-linecap:round;stroke-linejoin:round;stroke:rgb(100%,100%,100%);stroke-opacity:1;stroke-miterlimit:4;" d="M 11.195714 15.752857 C 11.115714 15.24 11.364286 14.631429 11.628571 13.917143 C 12.027143 12.847143 12.945714 11.777143 12.211429 8.38 C 11.664286 5.85 7.991429 7.852857 7.991429 8.195714 C 7.991429 8.538571 8.157143 9.935714 7.931429 11.561429 C 7.634286 13.682857 9.281429 15.477143 11.177143 15.294286 " transform="matrix(2.734375,0,0,2.734375,0,0)"/>
<path style="fill-rule:nonzero;fill:rgb(100%,100%,100%);fill-opacity:1;stroke-width:0.239;stroke-linecap:butt;stroke-linejoin:miter;stroke:rgb(100%,100%,100%);stroke-opacity:1;stroke-miterlimit:4;" d="M 10.321429 8.145714 C 10.305714 8.261429 10.537143 8.574286 10.838571 8.617143 C 11.138571 8.658571 11.395714 8.414286 11.412857 8.297143 C 11.43 8.178571 11.198571 8.051429 10.897143 8.008571 C 10.595714 7.967143 10.337143 8.028571 10.321429 8.144286 Z M 10.321429 8.145714 " transform="matrix(2.734375,0,0,2.734375,0,0)"/>
<path style="fill-rule:nonzero;fill:rgb(100%,100%,100%);fill-opacity:1;stroke-width:0.119;stroke-linecap:butt;stroke-linejoin:miter;stroke:rgb(100%,100%,100%);stroke-opacity:1;stroke-miterlimit:4;" d="M 19.485714 7.905714 C 19.501429 8.022857 19.271429 8.335714 18.97 8.378571 C 18.668571 8.42 18.41 8.175714 18.394286 8.058571 C 18.38 7.94 18.61 7.811429 18.911429 7.77 C 19.211429 7.728571 19.471429 7.79 19.485714 7.905714 Z M 19.485714 7.905714 " transform="matrix(2.734375,0,0,2.734375,0,0)"/>
<path style="fill:none;stroke-width:0.716;stroke-linecap:round;stroke-linejoin:round;stroke:rgb(100%,100%,100%);stroke-opacity:1;stroke-miterlimit:4;" d="M 20.561429 7.094286 C 20.611429 8.014286 20.364286 8.64 20.331429 9.618571 C 20.285714 11.041429 21.01 12.668571 19.918571 14.298571 " transform="matrix(2.734375,0,0,2.734375,0,0)"/>
</g>
</svg>
